<svg id="Capa_1" enable-background="new 0 0 511 511" height="512" viewBox="0 0 511 511" width="512" xmlns="http://www.w3.org/2000/svg"><g id="XMLID_272_"><path id="XMLID_3302_" d="m15 68.5h152.727v152.727h-152.727z" fill="#fff4f4"/><path id="XMLID_4346_" d="m91.364 68.5h76.364v152.727h-76.364z" fill="#f2e6e6"/><path id="XMLID_3304_" d="m182.727 236.228h-182.727v-182.728h182.727zm-152.727-30h122.727v-122.728h-122.727z" fill="#f2e6e6"/><path id="XMLID_4362_" d="m91.364 53.5v30h61.363v122.728h-61.363v30h91.363v-182.728z" fill="#ebd4ce"/><path id="XMLID_3303_" d="m91.068 185.482-56.934-59.823 21.732-20.681 35.498 39.886 115.492-69.961 16.288 25.194z" fill="#a8e62e"/><path id="XMLID_3286_" d="m15 289.773h152.727v152.727h-152.727z" fill="#fff4f4"/><path id="XMLID_4348_" d="m91.364 289.773h76.364v152.727h-76.364z" fill="#f2e6e6"/><path id="XMLID_3299_" d="m182.727 457.5h-182.727v-182.728h182.727zm-152.727-30h122.727v-122.728h-122.727z" fill="#f2e6e6"/><path id="XMLID_4347_" d="m91.364 274.772v30h61.363v122.728h-61.363v30h91.363v-182.728z" fill="#ebd4ce"/><path id="XMLID_405_" d="m178.333 300.379-21.212-21.213-65.757 65.757-65.758-65.757-21.212 21.213 65.757 65.757-65.757 65.758 21.212 21.212 65.758-65.757 65.757 65.757 21.212-21.212-65.757-65.758z" fill="#ff6c6c"/><path id="XMLID_3298_" d="m339 129.863h172v30h-172z" fill="#5b64df"/><path id="XMLID_3297_" d="m339 351.137h172v30h-172z" fill="#5b64df"/><path id="XMLID_12_" d="m289 159.864c7.846 0 15.363-6.899 15-15-.364-8.127-6.591-15-15-15-7.846 0-15.363 6.899-15 15 .364 8.127 6.591 15 15 15z" fill="#39f"/><path id="XMLID_13_" d="m289 381.136c7.846 0 15.363-6.899 15-15-.364-8.127-6.591-15-15-15-7.846 0-15.363 6.899-15 15 .364 8.127 6.591 15 15 15z" fill="#39f"/><path id="XMLID_4345_" d="m178.333 300.379-21.212-21.213-65.757 65.757v42.426l65.757 65.757 21.212-21.212-65.757-65.758z" fill="#ff3650"/><path id="XMLID_4368_" d="m91.364 185.291 131.78-85.194-16.288-25.194-115.492 69.961z" fill="#7acc29"/></g></svg>