<svg id="Capa_1" enable-background="new 0 0 512 512" height="512" viewBox="0 0 512 512" width="512" xmlns="http://www.w3.org/2000/svg"><g><g><path d="m462.193 504.5h-422.386c-13.807 0-25-11.193-25-25v-315.248l10-72.802c0-13.807 11.193-25 25-25h412.385c13.807 0 25 11.193 25 25v388.05c.001 13.807-11.192 25-24.999 25z" fill="#f9f6f9"/><path d="m389.036 447.386h-62.294l-7.5-10-7.5 10h-108.661l-7.5-10-7.5 10h-91.16c-13.807 0-25-11.193-25-25v-80.51l10-7.5-10-7.5v-80.51c0-13.807 11.193-25 25-25h91.16l7.5 10 7.5-10h108.661l7.5 10 7.5-10h62.294c13.807 0 25 11.193 25 25v176.021c0 13.807-11.193 24.999-25 24.999z" fill="#ade4a4"/><path d="m415.079 221.366h-88.337l-7.5 113.01 7.5 113.01h88.337c13.807 0 25-11.193 25-25v-80.51l-10-7.5 10-7.5v-80.51c0-13.807-11.193-25-25-25z" fill="#ea7bc1"/><path d="m462.193 66.45h-20c13.807 0 25 1.193 25 15v398.05c0 13.807-11.193 25-25 25h30c13.807 0 25-11.193 25-25v-315.248l-10-82.802c0-13.807-11.193-15-25-15z" fill="#dedbec"/><path d="m39.807 56.45c-13.807 0-25 11.193-25 25v82.802h452.385l20-82.802c0-13.807-11.193-25-25-25h-13.852z" fill="#ea7bc1"/><path d="m472.193 56.45h-30c13.807 0 25 11.193 25 25v82.802h30v-82.802c0-13.807-11.193-25-25-25z" fill="#ea5bb1"/><g fill="#ffe187"><path d="m256 105.4c-13.104 0-23.726-10.622-23.726-23.726v-50.448c0-13.104 10.622-23.726 23.726-23.726 13.103 0 22.726 10.622 22.726 23.726v50.449c0 13.103-9.622 23.725-22.726 23.725z"/><path d="m107.386 105.4c-13.104 0-23.726-10.622-23.726-23.726v-50.448c0-13.104 10.623-23.726 23.726-23.726 13.104 0 22.726 10.622 22.726 23.726v50.449c0 13.103-9.622 23.725-22.726 23.725z"/><path d="m404.614 105.4c-13.103 0-23.726-10.622-23.726-23.726v-50.448c0-13.103 10.622-23.726 23.726-23.726 13.103 0 23.726 10.622 23.726 23.726v50.449c0 13.103-10.623 23.725-23.726 23.725z"/></g><path d="m404.614 7.5c-2.996 0-5.861.561-8.5 1.575 8.903 3.419 15.226 12.044 15.226 22.151v50.449c0 10.107-6.323 18.732-15.226 22.151 2.639 1.014 5.504 1.575 8.5 1.575 13.103 0 23.726-10.622 23.726-23.726v-50.449c0-13.104-10.623-23.726-23.726-23.726z" fill="#ffd26f"/><path d="m256 7.5c-2.997 0-5.861.561-8.5 1.575 8.903 3.419 15.226 12.044 15.226 22.151v50.449c0 10.107-6.323 18.732-15.226 22.151 2.639 1.014 5.503 1.575 8.5 1.575 13.103 0 23.726-10.622 23.726-23.726v-50.449c0-13.104-10.623-23.726-23.726-23.726z" fill="#ffd26f"/><path d="m107.387 7.5c-2.997 0-5.861.561-8.5 1.575 8.903 3.419 15.226 12.044 15.226 22.151v50.449c0 10.107-6.323 18.732-15.226 22.151 2.639 1.014 5.503 1.575 8.5 1.575 13.103 0 23.726-10.622 23.726-23.726v-50.449c-.001-13.104-10.623-23.726-23.726-23.726z" fill="#ffd26f"/></g><g><path d="m472.192 48.95h-36.352v-17.724c0-17.218-14.008-31.226-31.227-31.226-17.218 0-31.226 14.008-31.226 31.226v17.724h-86.162v-17.724c.001-17.218-14.007-31.226-31.225-31.226s-31.226 14.008-31.226 31.226v17.724h-26.737c-4.142 0-7.5 3.358-7.5 7.5s3.358 7.5 7.5 7.5h26.737v17.725c0 17.218 14.008 31.226 31.226 31.226s31.226-14.008 31.226-31.226v-17.725h86.162v17.725c0 17.218 14.008 31.226 31.226 31.226 17.219 0 31.227-14.008 31.227-31.226v-17.725h36.353c9.649 0 17.5 7.851 17.5 17.5v75.302h-467.386v-75.302c0-9.649 7.851-17.5 17.5-17.5h36.353v17.725c0 17.218 14.008 31.226 31.226 31.226s31.226-14.008 31.226-31.226v-17.725h26.738c4.142 0 7.5-3.358 7.5-7.5s-3.358-7.5-7.5-7.5h-26.738v-17.724c-.001-17.218-14.009-31.226-31.227-31.226s-31.225 14.008-31.225 31.226v17.724h-36.353c-17.92 0-32.5 14.58-32.5 32.5v398.05c0 17.92 14.58 32.5 32.5 32.5h432.385c17.921 0 32.5-14.58 32.5-32.5v-169.295c0-4.142-3.357-7.5-7.5-7.5s-7.5 3.358-7.5 7.5v169.295c0 9.649-7.851 17.5-17.5 17.5h-432.385c-9.649 0-17.5-7.851-17.5-17.5v-307.748h467.385v105.766c0 4.142 3.357 7.5 7.5 7.5s7.5-3.358 7.5-7.5v-196.068c-.001-17.92-14.58-32.5-32.501-32.5zm-199.966 32.725c0 8.947-7.278 16.226-16.226 16.226-8.947 0-16.226-7.279-16.226-16.226v-50.449c0-8.947 7.279-16.226 16.226-16.226s16.226 7.279 16.226 16.226zm148.614 0c0 8.947-7.279 16.226-16.227 16.226-8.947 0-16.226-7.279-16.226-16.226v-50.449c0-8.947 7.278-16.226 16.226-16.226 8.947 0 16.227 7.279 16.227 16.226zm-329.679-50.449c0-8.947 7.279-16.226 16.226-16.226s16.226 7.279 16.226 16.226v50.449c0 8.947-7.279 16.226-16.226 16.226s-16.226-7.279-16.226-16.226z"/><path d="m256 286.061c4.143 0 7.5-3.358 7.5-7.5v-26.199c0-4.142-3.357-7.5-7.5-7.5-4.142 0-7.5 3.358-7.5 7.5v26.199c0 4.142 3.358 7.5 7.5 7.5z"/><path d="m256 310.88c4.142 0 7.5-3.358 7.5-7.5 0-4.142-3.358-7.5-7.5-7.5s-7.5 3.358-7.5 7.5c0 4.142 3.358 7.5 7.5 7.5z"/><path d="m71.921 398.082c-4.142 0-7.5 3.358-7.5 7.5v16.805c0 17.92 14.58 32.5 32.5 32.5h318.158c17.921 0 32.5-14.58 32.5-32.5v-176.02c0-17.92-14.579-32.5-32.5-32.5h-318.158c-17.92 0-32.5 14.58-32.5 32.5v126.53c0 4.142 3.358 7.5 7.5 7.5s7.5-3.358 7.5-7.5v-31.02h108.661v98.01h-91.161c-9.649 0-17.5-7.851-17.5-17.5v-16.805c0-4.142-3.358-7.5-7.5-7.5zm343.158 41.804h-88.337v-98.01h105.837v80.51c0 9.65-7.85 17.5-17.5 17.5zm17.5-193.52v80.51h-105.837v-98.01h88.337c9.65 0 17.5 7.85 17.5 17.5zm-120.837 80.51h-108.661v-98.01h108.661zm-232.321 0v-80.51c0-9.649 7.851-17.5 17.5-17.5h91.161v98.01zm123.66 15h108.661v98.01h-108.661z"/></g></g></svg>